# xmcd
#
# Track frame offsets:
#	150
#	25035
#	46500
#	63137
#	84362
#	102575
#	125340
#	149750
#	170480
#	192995
#	213000
#	235805
#	258137
#
# Disc length: 3750 seconds
#
# Revision: 1
# Processed by: cddbd v1.5.2PL0 Copyright (c) Steve Scherf et al.
# Submitted via: audiograbber 1.83.01
#
DISCID=a60ea40d
DTITLE=Donna Renee - Keep On Believing
DYEAR=1998
DGENRE=Soul
TTITLE0=Somewhere
TTITLE1=Time
TTITLE2=Sad to Say
TTITLE3=Tell Me
TTITLE4=D.A.N.C.E.
TTITLE5=Keep On Believing
TTITLE6=Follow
TTITLE7=I Believe
TTITLE8=More
TTITLE9=Could It Be
TTITLE10=Sad To Say Far East Tokyo Mix
TTITLE11=I Believe Frisbee Mix
TTITLE12=Follow Young Soul Mix
EXTD=
EXTT0=
EXTT1=
EXTT2=
EXTT3=
EXTT4=
EXTT5=
EXTT6=
EXTT7=
EXTT8=
EXTT9=
EXTT10=
EXTT11=
EXTT12=
PLAYORDER=
